<?xml version="1.0" encoding="UTF-8" standalone="no"?>
<svg xmlns="http://www.w3.org/2000/svg" xmlns:xlink="http://www.w3.org/1999/xlink" contentScriptType="application/ecmascript" contentStyleType="text/css" height="600px" preserveAspectRatio="none" style="width:687px;height:600px;" version="1.1" viewBox="0 0 687 600" width="687px" zoomAndPan="magnify"><defs><filter height="300%" id="fb16e5b" width="300%" x="-1" y="-1"><feGaussianBlur result="blurOut" stdDeviation="2.0"/><feColorMatrix in="blurOut" result="blurOut2" type="matrix" values="0 0 0 0 0 0 0 0 0 0 0 0 0 0 0 0 0 0 .4 0"/><feOffset dx="4.0" dy="4.0" in="blurOut2" result="blurOut3"/><feBlend in="SourceGraphic" in2="blurOut3" mode="normal"/></filter></defs><g><!--class OrganizationalUnit--><rect fill="#FEFECE" filter="url(#fb16e5b)" height="26.2969" style="stroke: #A80036; stroke-width: 1.5;" width="131" x="9" y="8"/><text fill="#000000" font-family="sans-serif" font-size="14" lengthAdjust="spacingAndGlyphs" textLength="125" x="12" y="25.9951">OrganizationalUnit</text><!--class Organization--><rect fill="#FEFECE" filter="url(#fb16e5b)" height="85.5156" style="stroke: #A80036; stroke-width: 1.5;" width="175" x="159" y="111"/><text fill="#000000" font-family="sans-serif" font-size="14" lengthAdjust="spacingAndGlyphs" textLength="87" x="203" y="128.9951">Organization</text><line style="stroke: #A80036; stroke-width: 1.5;" x1="160" x2="333" y1="137.2969" y2="137.2969"/><text fill="#000000" font-family="sans-serif" font-size="11" lengthAdjust="spacingAndGlyphs" textLength="154" x="165" y="151.5073">altLabel  : xsd:string  [0..*]</text><text fill="#000000" font-family="sans-serif" font-size="11" lengthAdjust="spacingAndGlyphs" textLength="98" x="165" y="164.312">homepage  [0..1]</text><text fill="#000000" font-family="sans-serif" font-size="11" lengthAdjust="spacingAndGlyphs" textLength="62" x="165" y="177.1167">logo  [0..1]</text><text fill="#000000" font-family="sans-serif" font-size="11" lengthAdjust="spacingAndGlyphs" textLength="163" x="165" y="189.9214">prefLabel  : xsd:string  [1..*]</text><!--class PostalAddress--><rect fill="#FEFECE" filter="url(#fb16e5b)" height="111.125" style="stroke: #A80036; stroke-width: 1.5;" width="209" x="343" y="377"/><text fill="#000000" font-family="sans-serif" font-size="14" lengthAdjust="spacingAndGlyphs" textLength="99" x="398" y="394.9951">PostalAddress</text><line style="stroke: #A80036; stroke-width: 1.5;" x1="344" x2="551" y1="403.2969" y2="403.2969"/><text fill="#000000" font-family="sans-serif" font-size="11" lengthAdjust="spacingAndGlyphs" textLength="91" x="349" y="417.5073">addressCountry</text><text fill="#000000" font-family="sans-serif" font-size="11" lengthAdjust="spacingAndGlyphs" textLength="162" x="349" y="430.312">addressLocality  : xsd:string</text><text fill="#000000" font-family="sans-serif" font-size="11" lengthAdjust="spacingAndGlyphs" textLength="158" x="349" y="443.1167">addressRegion  : xsd:string</text><text fill="#000000" font-family="sans-serif" font-size="11" lengthAdjust="spacingAndGlyphs" textLength="197" x="349" y="455.9214">postOfficeBoxNumber  : xsd:string</text><text fill="#000000" font-family="sans-serif" font-size="11" lengthAdjust="spacingAndGlyphs" textLength="137" x="349" y="468.7261">postalCode  : xsd:string</text><text fill="#000000" font-family="sans-serif" font-size="11" lengthAdjust="spacingAndGlyphs" textLength="154" x="349" y="481.5308">streetAddress  : xsd:string</text><!--class ServiceProvider--><rect fill="#FEFECE" filter="url(#fb16e5b)" height="26.2969" style="stroke: #A80036; stroke-width: 1.5;" width="112" x="210.5" y="8"/><text fill="#000000" font-family="sans-serif" font-size="14" lengthAdjust="spacingAndGlyphs" textLength="106" x="213.5" y="25.9951">ServiceProvider</text><!--class Post--><rect fill="#FEFECE" filter="url(#fb16e5b)" height="26.2969" style="stroke: #A80036; stroke-width: 1.5;" width="37" x="238" y="419.5"/><text fill="#000000" font-family="sans-serif" font-size="14" lengthAdjust="spacingAndGlyphs" textLength="31" x="241" y="437.4951">Post</text><!--class Role--><rect fill="#FEFECE" filter="url(#fb16e5b)" height="26.2969" style="stroke: #A80036; stroke-width: 1.5;" width="37" x="238" y="565"/><text fill="#000000" font-family="sans-serif" font-size="14" lengthAdjust="spacingAndGlyphs" textLength="31" x="241" y="582.9951">Role</text><!--class Person--><rect fill="#FEFECE" filter="url(#fb16e5b)" height="26.2969" style="stroke: #A80036; stroke-width: 1.5;" width="55" x="6" y="274"/><text fill="#000000" font-family="sans-serif" font-size="14" lengthAdjust="spacingAndGlyphs" textLength="49" x="9" y="291.9951">Person</text><!--class Concept--><rect fill="#FEFECE" filter="url(#fb16e5b)" height="26.2969" style="stroke: #A80036; stroke-width: 1.5;" width="65" x="143" y="274"/><text fill="#000000" font-family="sans-serif" font-size="14" lengthAdjust="spacingAndGlyphs" textLength="59" x="146" y="291.9951">Concept</text><!--class Site--><rect fill="#FEFECE" filter="url(#fb16e5b)" height="26.2969" style="stroke: #A80036; stroke-width: 1.5;" width="32" x="431.5" y="274"/><text fill="#000000" font-family="sans-serif" font-size="14" lengthAdjust="spacingAndGlyphs" textLength="26" x="434.5" y="291.9951">Site</text><!--class EducationalOrganization--><rect fill="#FEFECE" filter="url(#fb16e5b)" height="26.2969" style="stroke: #A80036; stroke-width: 1.5;" width="173" x="358" y="8"/><text fill="#000000" font-family="sans-serif" font-size="14" lengthAdjust="spacingAndGlyphs" textLength="167" x="361" y="25.9951">EducationalOrganization</text><!--class ContentPartner--><rect fill="#FEFECE" filter="url(#fb16e5b)" height="26.2969" style="stroke: #A80036; stroke-width: 1.5;" width="112" x="566.5" y="8"/><text fill="#000000" font-family="sans-serif" font-size="14" lengthAdjust="spacingAndGlyphs" textLength="106" x="569.5" y="25.9951">ContentPartner</text><path d="M57.2954,34.236 C43.3065,46.6412 27.541,65.5395 38.5,81 C51.3203,99.0863 95.1373,115.7536 139.2696,128.5818 " fill="none" style="stroke: #800000; stroke-width: 1.0;"/><polygon fill="none" points="141.3948,121.9072,158.7832,134.0169,137.6384,135.3939,141.3948,121.9072" style="stroke: #800000; stroke-width: 1.0;"/><path d="M69.6469,34.1259 C65.7316,47.1475 62.2463,67.1133 71.5,81 C90.3007,109.2134 122.2978,126.541 153.8305,137.1753 " fill="none" style="stroke: #800000; stroke-width: 1.0;"/><polygon fill="#800000" points="158.8853,138.8253,151.5709,132.2299,154.1321,137.2737,149.0883,139.835,158.8853,138.8253" style="stroke: #800000; stroke-width: 1.0;"/><text fill="#000000" font-family="sans-serif" font-size="13" lengthAdjust="spacingAndGlyphs" textLength="75" x="72.5" y="77.0669">unitOf [1..*]</text><path d="M206.0002,110.7509 C190.1317,95.0412 171.2524,77.7805 152.5,64 C138.3944,53.6343 121.5117,44.0278 107.066,36.5359 " fill="none" style="stroke: #800000; stroke-width: 1.0;"/><polygon fill="#800000" points="102.2681,34.0782,108.4547,41.7415,106.7182,36.3578,112.102,34.6213,102.2681,34.0782" style="stroke: #800000; stroke-width: 1.0;"/><text fill="#000000" font-family="sans-serif" font-size="13" lengthAdjust="spacingAndGlyphs" textLength="86" x="173.5" y="77.0669">hasUnit [0..*]</text><path d="M273.0928,34.3255 C278.2719,46.4713 284.0617,64.9171 280.5,81 C279.707,84.581 278.7194,88.1947 277.5855,91.7968 " fill="none" style="stroke: #800000; stroke-width: 1.0;"/><polygon fill="none" points="284.0501,94.4911,270.3998,110.6982,270.9638,89.5161,284.0501,94.4911" style="stroke: #800000; stroke-width: 1.0;"/><path d="M263.4953,419.2751 C280.0091,386.269 318.4312,297.8296 296.5,227 C293.8165,218.3331 289.7097,209.7797 284.9794,201.7487 " fill="none" style="stroke: #800000; stroke-width: 1.0;"/><polygon fill="#800000" points="282.2923,197.3434,283.564,207.1098,284.8959,201.612,290.3938,202.944,282.2923,197.3434" style="stroke: #800000; stroke-width: 1.0;"/><text fill="#000000" font-family="sans-serif" font-size="13" lengthAdjust="spacingAndGlyphs" textLength="76" x="303.5" y="291.5669">postIn [1..*]</text><path d="M256.5,445.6688 C256.5,471.7472 256.5,530.0056 256.5,559.7566 " fill="none" style="stroke: #800000; stroke-width: 1.0;"/><polygon fill="#800000" points="256.5,564.9658,260.5,555.9658,256.5,559.9658,252.5,555.9658,256.5,564.9658" style="stroke: #800000; stroke-width: 1.0;"/><text fill="#000000" font-family="sans-serif" font-size="13" lengthAdjust="spacingAndGlyphs" textLength="61" x="257.5" y="531.0669">role [1..*]</text><path d="M158.9588,170.1236 C100.1953,182.932 30.3717,202.7035 12.5,227 C3.2172,239.6199 10.6861,256.6928 19.1831,269.3999 " fill="none" style="stroke: #800000; stroke-width: 1.0;"/><polygon fill="#800000" points="22.0814,273.5291,20.1849,263.8646,19.2089,269.4366,13.6369,268.4606,22.0814,273.5291" style="stroke: #800000; stroke-width: 1.0;"/><text fill="#000000" font-family="sans-serif" font-size="13" lengthAdjust="spacingAndGlyphs" textLength="147" x="13.5" y="240.0669">accountmanager [1..1]</text><path d="M191.9473,197.1991 C184.024,206.1455 177.0258,216.1781 172.5,227 C167.0072,240.1342 168.2249,256.3204 170.5586,268.5697 " fill="none" style="stroke: #800000; stroke-width: 1.0;"/><polygon fill="#800000" points="171.6107,273.558,173.667,263.9262,170.5787,268.6657,165.8393,265.5774,171.6107,273.558" style="stroke: #800000; stroke-width: 1.0;"/><text fill="#000000" font-family="sans-serif" font-size="13" lengthAdjust="spacingAndGlyphs" textLength="118" x="173.5" y="240.0669">classification [1..*]</text><path d="M311.7589,197.1813 C351.6359,223.5676 399.9886,255.5621 426.8904,273.3628 " fill="none" style="stroke: #800000; stroke-width: 1.0;"/><polygon fill="#800000" points="431.3382,276.3059,426.04,268.0036,427.1684,273.5467,421.6253,274.6752,431.3382,276.3059" style="stroke: #800000; stroke-width: 1.0;"/><text fill="#000000" font-family="sans-serif" font-size="13" lengthAdjust="spacingAndGlyphs" textLength="135" x="382.5" y="240.0669">hasPrimarySite [0..1]</text><path d="M447.5,300.1688 C447.5,316.3674 447.5,344.9818 447.5,371.4681 " fill="none" style="stroke: #800000; stroke-width: 1.0;"/><polygon fill="#800000" points="447.5,376.7327,451.5,367.7327,447.5,371.7327,443.5,367.7327,447.5,376.7327" style="stroke: #800000; stroke-width: 1.0;"/><text fill="#000000" font-family="sans-serif" font-size="13" lengthAdjust="spacingAndGlyphs" textLength="113" x="448.5" y="343.0669">siteAddress [0..1]</text><path d="M53.6831,300.1688 C95.1447,327.2211 189.6792,388.9017 233.4601,417.4673 " fill="none" style="stroke: #800000; stroke-width: 1.0;"/><polygon fill="#800000" points="237.7871,420.2905,232.4356,412.0224,233.5997,417.5582,228.0639,418.7223,237.7871,420.2905" style="stroke: #800000; stroke-width: 1.0;"/><text fill="#000000" font-family="sans-serif" font-size="13" lengthAdjust="spacingAndGlyphs" textLength="71" x="126.5" y="343.0669">holds [1..*]</text><path d="M424.7911,34.2388 C401.9916,49.5536 363.0002,75.7448 327.2847,99.7355 " fill="none" style="stroke: #800000; stroke-width: 1.0;"/><polygon fill="none" points="331.1451,105.5751,310.6396,110.9163,323.3386,93.9535,331.1451,105.5751" style="stroke: #800000; stroke-width: 1.0;"/><path d="M585.4187,34.1165 C531.9591,53.0264 431.1121,88.6984 353.269,116.2333 " fill="none" style="stroke: #800000; stroke-width: 1.0;"/><polygon fill="none" points="355.2064,122.973,334.0169,123.0432,350.5377,109.7743,355.2064,122.973" style="stroke: #800000; stroke-width: 1.0;"/></g></svg>